<?xml version="1.0" encoding="utf-8"?>
<!-- Generator: Adobe Illustrator 17.0.2, SVG Export Plug-In . SVG Version: 6.00 Build 0)  -->
<!DOCTYPE svg PUBLIC "-//W3C//DTD SVG 1.1//EN" "http://www.w3.org/Graphics/SVG/1.1/DTD/svg11.dtd">
<svg version="1.1" id="Layer_1" xmlns="http://www.w3.org/2000/svg" xmlns:xlink="http://www.w3.org/1999/xlink" x="0px" y="0px"
	 width="32px" height="32px" viewBox="0 0 32 32" enable-background="new 0 0 32 32" xml:space="preserve">
<g>
	<path fill="#1C1C1C" d="M28.5,3h-15C12.672,3,12,3.672,12,4.5S12.672,6,13.5,6h15C29.328,6,30,5.328,30,4.5S29.328,3,28.5,3z
		 M29,4.534C29,4.792,28.792,5,28.534,5H13.466C13.208,5,13,4.792,13,4.534V4.466C13,4.208,13.208,4,13.466,4h15.069
		C28.792,4,29,4.208,29,4.466V4.534z"/>
	<path fill="#1C1C1C" d="M9.5,3h-6C2.672,3,2,3.672,2,4.5S2.672,6,3.5,6h6C10.328,6,11,5.328,11,4.5S10.328,3,9.5,3z M6,5H3.466
		C3.208,5,3,4.792,3,4.534V4.466C3,4.208,3.208,4,3.466,4H6V5z M10,4.534C10,4.792,9.792,5,9.534,5H7V4h2.534
		C9.792,4,10,4.208,10,4.466V4.534z"/>
	<path fill="#1C1C1C" d="M30,0H2C0.895,0,0,0.895,0,2v28c0,1.105,0.895,2,2,2h28c1.105,0,2-0.895,2-2V2C32,0.895,31.105,0,30,0z
		 M31,29c0,1.105-0.895,2-2,2H3c-1.105,0-2-0.895-2-2V9h30V29z M31,8H1V3c0-1.105,0.895-2,2-2h26c1.105,0,2,0.895,2,2V8z"/>
</g>
</svg>
