<?xml version="1.0" encoding="utf-8"?>
<!-- Generator: Adobe Illustrator 17.0.2, SVG Export Plug-In . SVG Version: 6.00 Build 0)  -->
<!DOCTYPE svg PUBLIC "-//W3C//DTD SVG 1.1//EN" "http://www.w3.org/Graphics/SVG/1.1/DTD/svg11.dtd">
<svg version="1.1" id="Layer_1" xmlns="http://www.w3.org/2000/svg" xmlns:xlink="http://www.w3.org/1999/xlink" x="0px" y="0px"
	 width="32px" height="32px" viewBox="0 0 32 32" enable-background="new 0 0 32 32" xml:space="preserve">
<g>
	<path fill="#1C1C1C" d="M27,7H5C3.895,7,3,7.895,3,9v14h26V9C29,7.895,28.105,7,27,7z M28,22H4V10c0-1.105,0.895-2,2-2h20
		c1.105,0,2,0.895,2,2V22z"/>
	<path fill="#1C1C1C" d="M31,24.065V7c0-1.105-0.895-2-2-2H3C1.895,5,1,5.895,1,7v17.065c-0.57,0.147-1,0.642-1,1.258v0.354
		C0,26.408,0.592,27,1.323,27h29.354C31.408,27,32,26.408,32,25.677v-0.354C32,24.707,31.57,24.213,31,24.065z M2,8
		c0-1.105,0.895-2,2-2h24c1.105,0,2,0.895,2,2v16H2V8z M31,25.583C31,25.813,30.807,26,30.569,26H1.431C1.193,26,1,25.813,1,25.583
		v-0.167C1,25.187,1.193,25,1.431,25h29.138C30.807,25,31,25.187,31,25.417V25.583z"/>
</g>
</svg>
