<?xml version="1.0" encoding="utf-8"?>
<!-- Generator: Adobe Illustrator 17.0.2, SVG Export Plug-In . SVG Version: 6.00 Build 0)  -->
<!DOCTYPE svg PUBLIC "-//W3C//DTD SVG 1.1//EN" "http://www.w3.org/Graphics/SVG/1.1/DTD/svg11.dtd">
<svg version="1.1" id="Layer_1" xmlns="http://www.w3.org/2000/svg" xmlns:xlink="http://www.w3.org/1999/xlink" x="0px" y="0px"
	 width="32px" height="32px" viewBox="0 0 32 32" enable-background="new 0 0 32 32" xml:space="preserve">
<path fill="#1C1C1C" d="M16,0C9.925,0,5,4.925,5,11s11,21,11,21s11-14.925,11-21S22.075,0,16,0z M6,11C6,5.477,10.477,1,16,1
	s10,4.477,10,10c0,5.523-10,19-10,19S6,16.523,6,11z"/>
<path fill="#1C1C1C" d="M16,5c-3.314,0-6,2.686-6,6s2.686,6,6,6s6-2.686,6-6S19.314,5,16,5z M16,16c-2.761,0-5-2.239-5-5
	s2.239-5,5-5s5,2.239,5,5S18.761,16,16,16z"/>
</svg>
