<?xml version="1.0" encoding="utf-8"?>
<!-- Generator: Adobe Illustrator 17.0.2, SVG Export Plug-In . SVG Version: 6.00 Build 0)  -->
<!DOCTYPE svg PUBLIC "-//W3C//DTD SVG 1.1//EN" "http://www.w3.org/Graphics/SVG/1.1/DTD/svg11.dtd">
<svg version="1.1" id="Layer_1" xmlns="http://www.w3.org/2000/svg" xmlns:xlink="http://www.w3.org/1999/xlink" x="0px" y="0px"
	 width="32px" height="32px" viewBox="0 0 32 32" enable-background="new 0 0 32 32" xml:space="preserve">
<path fill-rule="evenodd" clip-rule="evenodd" fill="#1C1C1C" d="M20.654,16.692C23.256,15.115,25,12.265,25,9c0-4.971-4.029-9-9-9
	S7,4.029,7,9c0,3.265,1.744,6.115,4.346,7.692C4.78,18.686,0,24.783,0,32h32C32,24.783,27.22,18.686,20.654,16.692z M8,9
	c0-4.418,3.582-8,8-8s8,3.582,8,8c0,3.274-1.969,6.085-4.786,7.323l0,0c-0.482,0.212-0.989,0.377-1.514,0.492
	c-0.012,0.003-0.024,0.007-0.036,0.009c-0.235,0.05-0.475,0.086-0.717,0.115c-0.036,0.004-0.07,0.012-0.106,0.016
	C16.563,16.985,16.284,17,16,17s-0.563-0.015-0.839-0.045c-0.036-0.004-0.07-0.012-0.106-0.016
	c-0.242-0.029-0.482-0.065-0.717-0.115c-0.012-0.003-0.024-0.007-0.036-0.009c-0.525-0.115-1.032-0.28-1.514-0.492l0,0
	C9.969,15.085,8,12.274,8,9z M12.719,17.374C13.737,17.773,14.841,18,16,18s2.263-0.227,3.281-0.626
	C25.664,18.803,30.506,24.295,30.95,31H1.05C1.494,24.295,6.336,18.803,12.719,17.374z"/>
</svg>
